<?xml version="1.0" encoding="UTF-8"?>
<svg id="SVGRoot" width="96px" height="48px" version="1.1" viewBox="0 0 96 48" xmlns="http://www.w3.org/2000/svg">
 <g transform="translate(.12752 3.1708)" style="fill:#ff0000" aria-label="Abort">
  <path d="m22.225 33.029-1.472-5.472h-7.136l-1.504 5.472h-5.024l7.136-22.912h5.824l7.2 22.912zm-2.464-9.44-1.504-5.568q-0.224-0.928-0.576-2.208-0.32-1.28-0.512-2.208-0.096 0.608-0.32 1.44-0.192 0.832-0.416 1.632-0.192 0.8-0.32 1.312l-1.504 5.6z" style="fill:#ff0000"/>
  <path d="m34.032 8.7092v5.824q0 0.8-0.064 1.696-0.032 0.864-0.096 1.6h0.16q0.704-1.184 1.792-1.888 1.12-0.704 2.752-0.704 2.752 0 4.384 2.336 1.664 2.304 1.664 6.688t-1.696 6.752q-1.664 2.336-4.448 2.336-1.664 0-2.688-0.608-0.992-0.608-1.76-1.632h-0.288l-0.704 1.92h-3.552v-24.32zm3.072 10.24q-1.696 0-2.368 1.216t-0.704 3.584v0.64q0 2.592 0.672 3.904 0.704 1.312 2.432 1.312 1.312 0 2.08-1.344 0.768-1.376 0.768-4.064 0-2.624-0.768-3.936-0.736-1.312-2.112-1.312z" style="fill:#ff0000"/>
  <path d="m62.864 24.261q0 2.752-0.896 4.8-0.896 2.016-2.656 3.168-1.728 1.12-4.288 1.12-2.368 0-4.128-1.12-1.728-1.12-2.688-3.168-0.928-2.048-0.928-4.8 0-4.224 2.016-6.624t5.824-2.4q2.272 0 4.032 1.056 1.76 1.024 2.72 3.04 0.992 2.016 0.992 4.928zm-10.976 0q0 2.656 0.768 4.032 0.768 1.344 2.432 1.344t2.4-1.344q0.736-1.376 0.736-4.032t-0.736-3.968q-0.736-1.344-2.432-1.344-1.664 0-2.432 1.344-0.736 1.312-0.736 3.968z" style="fill:#ff0000"/>
  <path d="m75.408 15.237q0.768 0 1.568 0.16l-0.384 4.448q-0.256-0.064-0.672-0.096-0.416-0.064-0.768-0.064-1.696 0-2.944 1.056-1.216 1.056-1.216 3.392v8.896h-4.544v-17.472h3.488l0.64 2.912h0.224q0.672-1.312 1.856-2.272t2.752-0.96z" style="fill:#ff0000"/>
  <path d="m86.544 29.605q0.64 0 1.28-0.128 0.672-0.16 1.344-0.384v3.456q-0.736 0.352-1.76 0.576t-2.24 0.224q-2.304 0-3.68-1.248-1.344-1.28-1.344-4.448v-8.576h-2.048v-2.08l2.4-1.44 1.248-3.712h2.944v3.712h4.256v3.52h-4.256v8.512q0 2.016 1.856 2.016z" style="fill:#ff0000"/>
 </g>
</svg>
